<svg width="144" height="51" viewBox="0 0 144 51" fill="none" xmlns="http://www.w3.org/2000/svg">
<path d="M118.694 50.1219C113 50.1219 107.559 48.2517 103.163 44.7631C98.7674 48.2158 93.3265 50.1219 87.6333 50.1219C81.9401 50.1219 76.4992 48.2517 72.1032 44.7631C67.7072 48.2158 62.2662 50.1219 56.573 50.1219C50.8798 50.1219 45.4389 48.2517 41.0429 44.7631C36.6469 48.2158 31.2059 50.1219 25.5127 50.1219C18.8827 50.1219 12.649 47.6044 7.92872 43.0009C3.13635 38.3974 0.469927 32.2474 0.361828 25.7019C0.25373 19.1203 2.70396 12.8984 7.28013 8.11514C11.8203 3.3678 17.9819 0.634489 24.6119 0.418701H24.72H26.3055C31.7104 0.598525 36.827 2.46869 41.0068 5.74147C45.1506 2.46869 50.2673 0.598525 55.6722 0.418701L55.7803 3.22395V0.418701H57.3657C62.7707 0.598525 67.8873 2.46869 72.0671 5.74147C76.2469 2.46869 81.3276 0.598525 86.7685 0.418701H86.8766H88.4621C93.867 0.598525 98.9836 2.46869 103.163 5.74147C107.307 2.46869 112.424 0.598525 117.865 0.418701L117.973 3.22395V0.418701H119.558C126.152 0.634489 132.314 3.3678 136.89 8.11514C141.466 12.8625 143.917 19.1203 143.808 25.6659C143.7 32.2474 141.034 38.3974 136.314 43.0009C131.521 47.6044 125.288 50.1219 118.694 50.1219ZM107.271 40.6991C110.478 43.0368 114.442 44.4395 118.694 44.4395C129.179 44.4395 137.863 35.9878 138.007 25.6299C138.187 15.2721 129.828 6.56866 119.378 6.17305H118.009C114.009 6.31691 110.334 7.68357 107.307 9.87741C110.911 14.373 112.784 19.9116 112.712 25.7019C112.568 31.2045 110.694 36.4193 107.271 40.6991ZM76.2109 40.6991C79.4178 43.0368 83.3814 44.4395 87.6333 44.4395C91.8852 44.4395 95.8128 43.0368 99.0197 40.6991C95.6326 36.4553 93.7229 31.2045 93.6148 25.7019C93.5067 19.9116 95.4164 14.373 99.0197 9.87741C95.9929 7.68357 92.3176 6.31691 88.3179 6.17305H86.9487C82.949 6.31691 79.2737 7.68357 76.2469 9.87741C79.8502 14.373 81.7239 19.9116 81.6519 25.7019C81.5077 31.2045 79.598 36.4193 76.2109 40.6991ZM45.1146 40.6991C48.3215 43.0368 52.2851 44.4395 56.537 44.4395C60.7889 44.4395 64.7164 43.0368 67.9234 40.6991C64.5363 36.4553 62.6265 31.2045 62.5184 25.7019C62.4103 19.9116 64.3201 14.373 67.9234 9.87741C64.8966 7.68357 61.2213 6.31691 57.2216 6.17305H55.8524C51.8527 6.31691 48.1774 7.68357 45.1506 9.87741C48.7539 14.373 50.6276 19.9116 50.5555 25.7019C50.4114 31.2045 48.5017 36.4193 45.1146 40.6991ZM24.756 6.13708C14.3065 6.49673 5.94691 15.2361 6.12708 25.594C6.30724 35.9518 14.9551 44.4035 25.4407 44.4035C29.6925 44.4035 33.6201 43.0009 36.827 40.6632C33.44 36.4193 31.5302 31.1685 31.4221 25.6659C31.314 19.8756 33.2238 14.337 36.827 9.84145C33.8003 7.6476 30.1249 6.28094 26.1253 6.13708H24.756ZM72.0671 13.9414C69.6169 17.2142 68.2116 21.2422 68.2837 25.594C68.3558 29.6939 69.761 33.5062 72.0671 36.5992C74.3732 33.5062 75.7785 29.6939 75.8506 25.594C75.9226 21.2422 74.4813 17.2142 72.0671 13.9414ZM40.9708 13.9414C38.5206 17.2142 37.1153 21.2422 37.1874 25.594C37.2594 29.6939 38.6647 33.5062 40.9708 36.5992C43.2769 33.5062 44.6822 29.6939 44.7543 25.594C44.8263 21.2422 43.421 17.2142 40.9708 13.9414ZM103.127 13.9414C100.677 17.2142 99.2719 21.2422 99.344 25.594C99.416 29.6939 100.821 33.5062 103.127 36.5992C105.434 33.5062 106.839 29.6939 106.911 25.594C107.019 21.2422 105.578 17.2142 103.127 13.9414Z" fill="#5F5F5F"/>
</svg>
