<svg width="225" height="19" viewBox="0 0 225 19" fill="none" xmlns="http://www.w3.org/2000/svg">
<path d="M213.944 11.7587L215.252 11.6532C215.788 11.611 216.323 11.5477 216.816 11.4845C218.102 11.2946 219.196 10.9571 220.096 10.493C220.439 10.3242 220.61 10.1977 220.996 9.92344C222.132 9.12184 222.711 8.046 222.796 6.56936C222.818 6.27403 222.796 6.04199 222.775 5.78885C222.711 4.86068 222.496 4.08017 222.111 3.46842C221.66 2.7301 221.017 2.16054 220.16 1.73864C219.303 1.31674 218.21 1.00032 216.945 0.810465C216.945 0.810465 215.08 0.515137 212.315 0.515137H191.182V18.045H197.826V11.8853H206.85L217.009 18.0661H224.297L213.944 11.7587ZM210.922 2.56134C210.965 2.56134 210.986 2.56134 211.029 2.56134C211.779 2.58243 212.422 2.60353 212.98 2.66681C213.687 2.75119 214.287 2.89885 214.759 3.15199C215.252 3.40513 215.638 3.78484 215.83 4.24893C216.023 4.64973 216.109 5.156 216.131 5.76776C216.131 5.80994 216.152 6.65374 216.109 7.07564C216.088 7.49753 215.98 7.96162 215.83 8.27804C215.68 8.61556 215.466 8.88979 215.166 9.12184C215.08 9.18512 214.995 9.24841 214.909 9.2906C214.48 9.52264 213.944 9.6703 213.258 9.75468C212.637 9.81797 211.844 9.86016 210.901 9.86016H197.783V2.56134H210.922Z" fill="#5F5F5F"/>
<path d="M21.9836 0.536194V8.78428C21.9836 11.2524 21.062 13.0876 19.2401 14.2268C17.6754 15.2182 15.4035 15.7245 12.5099 15.7245H0.164062V18.066H10.4094C13.2601 18.066 15.875 17.9605 18.1684 17.7496C20.419 17.5386 22.3266 17.1167 23.8698 16.4839C25.3702 15.8722 26.549 14.9862 27.3635 13.847C28.0922 12.8134 28.4995 11.4633 28.5852 9.79683C28.5852 9.64917 28.6067 9.45932 28.6067 9.24837V0.536194H21.9836Z" fill="#5F5F5F"/>
<path d="M98.0528 10.029V15.7246H87.9146C82.5991 15.7246 79.5126 14.037 78.6767 10.7462C78.3337 9.37506 78.5481 8.06718 78.6767 7.582C79.4912 4.24901 82.5348 2.62471 87.9146 2.62471H103.776V0.536316H89.9937C87.1001 0.536316 84.4852 0.64179 82.1918 0.831644C79.9627 1.0215 78.0337 1.44339 76.4904 2.05515C74.9686 2.6669 73.8112 3.53179 73.0182 4.67091C72.2465 5.74674 71.8607 7.20229 71.8179 8.99535C71.8179 9.03754 71.8179 9.07973 71.8179 9.14302C71.8179 9.2274 71.8179 9.31177 71.8179 9.41725C71.8393 11.2736 72.2465 12.7713 73.0396 13.8683C73.8541 15.0074 75.0329 15.8934 76.5333 16.5051C78.0765 17.138 80.0056 17.5599 82.2347 17.7708C84.5281 17.9818 87.1216 18.0872 89.9937 18.0872H104.676V10.029H98.0528Z" fill="#5F5F5F"/>
<path d="M53.7694 0.536316H46.9321L31.6069 18.0661H35.5722L39.023 14.1214H58.292L61.7428 18.0661H69.116L53.7694 0.536316ZM48.6468 3.10989L56.6416 12.244H40.6734L48.6468 3.10989Z" fill="#5F5F5F"/>
<path d="M163.081 0.536316L147.756 18.0661H151.722L155.172 14.1003H174.42L177.871 18.0661H185.265L169.94 0.536316H163.081ZM172.812 12.244H156.823L164.818 3.10989L172.812 12.244Z" fill="#5F5F5F"/>
<path d="M138.133 0.536316V9.41725C138.133 10.1767 138.026 10.8728 137.876 11.5056C137.018 14.7331 133.953 16.3785 128.681 16.3996H128.016C122.722 16.3996 119.636 14.7121 118.8 11.4424C118.65 10.8306 118.564 10.1556 118.564 9.43834V0.536316H111.919V9.69148C111.919 11.59 112.327 13.151 113.141 14.2902C113.656 14.9863 114.299 15.6191 115.07 16.1254C115.542 16.4207 116.056 16.695 116.635 16.927C117.214 17.1591 117.835 17.37 118.521 17.5388C119.657 17.8341 120.943 18.045 122.358 18.1927C124.137 18.3615 126.151 18.4669 128.338 18.4669C130.545 18.4669 132.539 18.3615 134.318 18.1927C135.711 18.0661 136.997 17.8552 138.133 17.5599C138.819 17.3911 139.44 17.1802 140.019 16.9481C140.598 16.7161 141.112 16.4629 141.584 16.1465C142.377 15.6402 143.02 15.0285 143.513 14.3113C144.327 13.1721 144.735 11.6111 144.735 9.71258V0.536316H138.133Z" fill="#5F5F5F"/>
</svg>
