<svg width="279" height="297" viewBox="0 0 279 297" fill="none" xmlns="http://www.w3.org/2000/svg">
<path opacity="0.1" d="M128.68 297V188.53C128.68 138.6 117.956 97.2783 96.5098 64.5652C74.2053 31.8521 42.0354 10.3304 0 0V45.1956C25.7359 52.0826 44.1801 64.9956 55.3323 83.9348C66.4845 102.013 72.9185 125.687 74.6342 154.957H25.736V297H128.68ZM279 297V188.53C279 138.6 268.277 97.2783 246.83 64.5652C224.526 31.8521 192.356 10.3304 150.32 0V45.1956C176.056 52.0826 194.5 64.9956 205.653 83.9348C216.805 102.013 223.239 125.687 224.954 154.957H176.056V297H279Z" fill="#1572D3"/>
</svg>
