<svg width="225" height="18" viewBox="0 0 225 18" fill="none" xmlns="http://www.w3.org/2000/svg">
<g clip-path="url(#clip0_12_535)">
<path d="M3.89421 3.128L11.6132 16.9354L20.536 16.9586L28.1133 3.128H31.9138V0.613342H20.4888V3.128H23.7935L18.2699 13.1866L12.6754 3.128H16.6883V0.613342H0.09375V3.128H3.89421Z" fill="#5F5F5F"/>
<path d="M102.163 3.12803V0.636658H117.459V3.12803H113.659V14.4207H117.2C120.481 14.4207 122.629 12.2786 122.629 9.3914H125.155V16.9587H102.187V14.3974H106.034V3.10475H102.163V3.12803Z" fill="#5F5F5F"/>
<path d="M65.0792 0.264099C57.4075 0.264099 53.3237 4.03609 53.3237 8.786C53.3237 13.5825 57.2422 17.4243 65.1264 17.4243C73.0106 17.4243 76.8819 13.5825 76.8819 8.786C76.8819 4.05937 72.7745 0.264099 65.0792 0.264099ZM65.0084 14.8398C62.1993 14.7932 60.9719 11.7431 61.0191 8.69287C61.0663 5.54954 62.6006 2.80204 65.2208 2.84861C67.841 2.89518 69.2337 5.68925 69.1865 8.83257C69.1393 11.7896 67.8882 14.8864 65.0084 14.8398Z" fill="#5F5F5F"/>
<path d="M151.215 3.128L158.934 16.9354L167.857 16.9586L175.434 3.128H179.235V0.613342H167.81V3.128H171.114L165.591 13.1866L159.996 3.128H164.009V0.613342H147.415V3.128H151.215Z" fill="#5F5F5F"/>
<path d="M212.4 0.264099C204.729 0.264099 200.645 4.03609 200.645 8.786C200.645 13.5825 204.564 17.4243 212.448 17.4243C220.332 17.4243 224.203 13.5825 224.203 8.786C224.203 4.05937 220.096 0.264099 212.4 0.264099ZM212.33 14.8398C209.521 14.7932 208.293 11.7431 208.34 8.69287C208.388 5.54954 209.922 2.80204 212.542 2.84861C215.162 2.89518 216.555 5.68925 216.508 8.83257C216.461 11.7896 215.21 14.8864 212.33 14.8398Z" fill="#5F5F5F"/>
</g>
<defs>
<clipPath id="clip0_12_535">
<rect width="224.133" height="17.1835" fill="white" transform="translate(0.09375 0.240784)"/>
</clipPath>
</defs>
</svg>
